<?xml version="1.0" encoding="utf-8"?>
<!-- Generator: Adobe Illustrator 21.0.0, SVG Export Plug-In . SVG Version: 6.00 Build 0)  -->
<svg version="1.1" id="Layer_1" xmlns="http://www.w3.org/2000/svg" xmlns:xlink="http://www.w3.org/1999/xlink" x="0px" y="0px"
	 viewBox="0 0 64 64" style="enable-background:new 0 0 64 64;" xml:space="preserve">
<style type="text/css">
	.st0{fill:#231F20;}
</style>
<title>Asset 4</title>
<g id="Layer_2">
	<g id="Layer_1-2">
		<path class="st0" d="M44.5,18.4c-3,0-5.4-2.4-5.4-5.4s2.4-5.4,5.4-5.4c3,0,5.4,2.4,5.4,5.4C49.9,16,47.4,18.4,44.5,18.4z
			 M44.5,9.8c-1.8,0-3.3,1.5-3.3,3.3s1.5,3.3,3.3,3.3s3.3-1.5,3.3-3.3S46.2,9.8,44.5,9.8z"/>
		<path class="st0" d="M21.1,63.8l-0.4-2.1c3.2-0.5,6.4-1.8,6.4-3.2c0-1.9-5.1-3.6-7.8-4.5l0.7-2.1c5.1,1.7,9.3,3.4,9.3,6.6
			C29.3,62,23.6,63.4,21.1,63.8z"/>
		<path class="st0" d="M16.9,53.2l-1.8-0.6l0.7-2l1.8,0.6L16.9,53.2z"/>
		<path class="st0" d="M12.5,51.5c-2.1-0.9-4.8-2.4-4.8-4.9c0-3.9,2.3-6.3,17.1-14.1c-1.6-0.7-3.4-1.1-5.2-1.1
			C14.4,31.3,9.4,33,5.3,36.1L4,34.3c4.5-3.4,9.9-5.1,15.5-5.1c2.9,0,5.6,0.8,8.1,2.3l1.8,1l-1.8,0.9C10.6,42.2,9.8,44,9.8,46.6
			c0,0.9,1.2,1.9,3.5,2.9L12.5,51.5z"/>
		<path class="st0" d="M54.6,64c0-0.1-2.4-7.6-9.1-10.3c-4.8-2-10-2.5-14.3-3c-5.9-0.7-10.6-1.2-10.6-5.2c0-3.2,4.3-6.1,9.2-9.5
			l0.5-0.4c1.9-1.3,4.2-2,6.5-2c6.5,0.2,12.6,2.9,20.9,9.5l-1.3,1.7c-7.9-6.2-13.6-8.8-19.6-9c-1.9,0-3.7,0.6-5.2,1.6l-0.5,0.4
			c-4.1,2.8-8.3,5.7-8.3,7.8s3.3,2.4,8.7,3c4.4,0.5,9.9,1.1,14.9,3.2C54,54.8,56.6,63,56.7,63.4L54.6,64z"/>
		<path class="st0" d="M5.7,26.3L4,24.9l11.5-13.6c1.6-1.9,4.4-2.1,6.3-0.6c0.3,0.2,0.5,0.5,0.7,0.8l9.3,12.4l-1.7,1.3l-9.3-12.4
			c-0.8-1-2.3-1.2-3.3-0.3c-0.1,0.1-0.2,0.1-0.2,0.2L5.7,26.3z"/>
		
			<rect x="26.5" y="16.5" transform="matrix(0.7071 -0.7071 0.7071 0.7071 -3.5757 26.4677)" class="st0" width="7.2" height="2.2"/>
		
			<rect x="54.6" y="21.2" transform="matrix(0.8569 -0.5155 0.5155 0.8569 -6.3101 32.6589)" class="st0" width="2.2" height="13.1"/>
		<path class="st0" d="M44.5,32.5l-9.9-11.1c-4.6-5.5-3.9-13.7,1.6-18.3c4.7-4,11.6-4.1,16.4-0.3l-1.3,1.7c-1.9-1.5-4.3-2.4-6.8-2.4
			c-6,0-10.8,4.8-10.8,10.8c0,2.6,0.9,5.1,2.6,7l8.3,9.3l8.3-9.3c2.3-2.7,3.1-6.4,2.2-9.8L57,9.6c1.1,4.1,0.1,8.5-2.6,11.8
			L44.5,32.5z"/>
		<path class="st0" d="M54,7.8c-0.3-0.5-0.6-1-0.9-1.4l1.7-1.3c0.4,0.5,0.8,1.1,1.1,1.7L54,7.8z"/>
	</g>
</g>
</svg>
