<?xml version="1.0" encoding="utf-8"?>
<!-- Generator: Adobe Illustrator 21.0.0, SVG Export Plug-In . SVG Version: 6.00 Build 0)  -->
<svg version="1.1" id="Layer_1" xmlns="http://www.w3.org/2000/svg" xmlns:xlink="http://www.w3.org/1999/xlink" x="0px" y="0px"
	 viewBox="0 0 64 64" style="enable-background:new 0 0 64 64;" xml:space="preserve">
<style type="text/css">
	.st0{fill:#231F20;}
</style>
<title>Asset 1</title>
<g id="Layer_2">
	<g id="Layer_1-2">
		
			<rect x="8.5" y="40.3" transform="matrix(0.5547 -0.8321 0.8321 0.5547 -25.1833 35.7328)" class="st0" width="24.6" height="2.2"/>
		
			<rect x="25.6" y="41.9" transform="matrix(0.5524 -0.8336 0.8336 0.5524 -19.7861 49.1117)" class="st0" width="20.6" height="2.2"/>
		<rect x="43.1" y="24.7" transform="matrix(0.5547 -0.8321 0.8321 0.5547 -0.283 51.0715)" class="st0" width="8.8" height="2.2"/>
		<polygon class="st0" points="43.1,59 30.1,52.7 13.7,52.7 0,46 17.7,19.5 19.5,20.7 3.2,45.2 14.2,50.5 30.6,50.5 42.3,56.2 
			60.8,28.6 49.8,23.2 42.4,23.2 42.4,21 50.3,21 64,27.7 		"/>
		
			<rect x="59.9" y="20.5" transform="matrix(0.4439 -0.8961 0.8961 0.4439 13.6821 67.2286)" class="st0" width="2.2" height="4.3"/>
		
			<rect x="52.2" y="15.5" transform="matrix(0.4373 -0.8993 0.8993 0.4373 13.0521 58.5445)" class="st0" width="2.2" height="6.7"/>
		<rect x="33.6" y="54.1" transform="matrix(0.4373 -0.8993 0.8993 0.4373 -33.1607 64.2)" class="st0" width="2.2" height="9"/>
		<polygon class="st0" points="9.6,41.8 7.4,41.8 7.4,44 9.6,44 9.6,41.8 		"/>
		<polygon class="st0" points="12.9,37.4 10.7,37.4 10.7,39.6 12.9,39.6 12.9,37.4 		"/>
		<polygon class="st0" points="16.1,33 14,33 14,35.2 16.1,35.2 16.1,33 		"/>
		<polygon class="st0" points="42.4,49.4 40.2,49.4 40.2,51.6 42.4,51.6 42.4,49.4 		"/>
		<polygon class="st0" points="45.7,45.1 43.5,45.1 43.5,47.3 45.7,47.3 45.7,45.1 		"/>
		<polygon class="st0" points="48.9,40.7 46.8,40.7 46.8,42.9 48.9,42.9 48.9,40.7 		"/>
		<path class="st0" d="M31.5,17.7c-2.4,0-4.4-2-4.4-4.4S29,9,31.4,9s4.4,2,4.4,4.4v0C35.8,15.8,33.9,17.7,31.5,17.7z M31.5,11.2
			c-1.2,0-2.2,1-2.2,2.2c0,1.2,1,2.2,2.2,2.2c1.2,0,2.2-1,2.2-2.2v0C33.6,12.2,32.7,11.2,31.5,11.2z"/>
		<path class="st0" d="M36.1,6c-0.5-0.3-1-0.5-1.5-0.8l0.8-2c0.6,0.3,1.3,0.6,1.8,0.9L36.1,6z"/>
		<path class="st0" d="M31.5,31L23,20.3c-3.8-4.7-3.1-11.6,1.5-15.4c2-1.6,4.4-2.5,6.9-2.5c0.4,0,0.7,0,1.1,0l-0.2,2.2
			c-0.3,0-0.6,0-0.9,0c-4.8,0-8.7,3.9-8.7,8.7c0,2,0.7,4,2,5.6l6.8,8.5l6.7-8.5c1.3-1.6,2.1-3.6,2.1-5.6c0-1.9-0.6-3.8-1.8-5.4
			l1.7-1.3c1.5,1.9,2.3,4.3,2.3,6.7c0,2.6-0.9,5-2.5,7L31.5,31z"/>
	</g>
</g>
</svg>
