<svg xmlns="http://www.w3.org/2000/svg" viewBox="0 0 32 32"><g id="fish-2" data-name="fish"><path d="M30,19.79A6,6,0,0,0,28.49,17c.11-.12.21-.25.31-.38A6.69,6.69,0,0,0,30,11.9a1,1,0,0,0-.68-.85,5.9,5.9,0,0,0-3.63,0,5.74,5.74,0,0,0-2.85,2.18,14.36,14.36,0,0,0-3.34-2.63,1,1,0,1,0-1,1.73,12.15,12.15,0,0,1,3.67,3.24,1,1,0,0,0,.95.42,1,1,0,0,0,.81-.65A4.08,4.08,0,0,1,26.32,13,3.65,3.65,0,0,1,28,12.8a4.5,4.5,0,0,1-.84,2.6,3.79,3.79,0,0,1-.8.8A1,1,0,0,0,26,17a1,1,0,0,0,.41.8A4.06,4.06,0,0,1,28,20.21a3.58,3.58,0,0,1,.08,1,3.64,3.64,0,0,1-1.78-.14,4.08,4.08,0,0,1-2.38-2.39A1,1,0,0,0,23.2,18a1,1,0,0,0-.93.29,12.52,12.52,0,0,1-4.62,3,.87.87,0,0,0-.34.22.75.75,0,0,0-.13.06A1,1,0,0,0,17.05,23a4,4,0,0,1,.92,2.1s0,.06,0,.09a3.57,3.57,0,0,1-1.7-.15A4,4,0,0,1,14,22.8a1,1,0,0,0-.9-.8q-.47,0-.9-.09a9.17,9.17,0,0,0,.83-5,8.89,8.89,0,0,0-1.12-3.37,1,1,0,0,0-1.74,1A7.18,7.18,0,0,1,11,17.12a7.34,7.34,0,0,1-.84,4.31,12.73,12.73,0,0,1-6-4.52A10.61,10.61,0,0,1,13.05,11a9.74,9.74,0,0,1,2.47.19,1,1,0,0,0,.89-.28.93.93,0,0,0,.31-.22A4.51,4.51,0,0,0,18,6.86a1,1,0,0,0-.68-.81,5.9,5.9,0,0,0-3.63,0,6.05,6.05,0,0,0-3.55,3.43,12.77,12.77,0,0,0-8,7.12,1,1,0,0,0,.07.93,14.51,14.51,0,0,0,10.13,6.4,6,6,0,0,0,3.36,3,5.76,5.76,0,0,0,1.8.29A6,6,0,0,0,19.27,27a1,1,0,0,0,.69-.84,6.22,6.22,0,0,0,0-1.22,5.69,5.69,0,0,0-.68-2.1,15.58,15.58,0,0,0,3.45-2.16A5.81,5.81,0,0,0,25.68,23a5.9,5.9,0,0,0,3.63,0A1,1,0,0,0,30,22.2,5.76,5.76,0,0,0,30,19.79ZM14.32,8A3.56,3.56,0,0,1,16,7.8v0a2.54,2.54,0,0,1-.61,1.31A11.83,11.83,0,0,0,13,9l-.2,0A3.56,3.56,0,0,1,14.32,8Z"/><path d="M7,15a1,1,0,1,0,1,1,1,1,0,0,0-1-1Z"/></g></svg>