<svg fill="#000000" xmlns="http://www.w3.org/2000/svg"  viewBox="0 0 16 16" width="16px" height="16px"><path d="M 8 1.3183594 L 0.66015625 8.1328125 L 1.3398438 8.8671875 L 2 8.2539062 L 2 14 L 14 14 L 14 8.2539062 L 14.660156 8.8671875 L 15.339844 8.1328125 L 8 1.3183594 z M 8 2.6816406 L 13 7.3261719 L 13 13 L 3 13 L 3 7.3261719 L 8 2.6816406 z M 8 6 C 6.9013528 6 6 6.9013528 6 8 C 6 8.5359199 6.2172227 9.0225055 6.5644531 9.3828125 C 5.6378325 9.8946108 5 10.8711 5 12 L 6 12 C 6 10.889094 6.8890941 10 8 10 C 9.1109059 10 10 10.889094 10 12 L 11 12 C 11 10.8711 10.362167 9.8946108 9.4355469 9.3828125 C 9.7827773 9.0225055 10 8.5359199 10 8 C 10 6.9013528 9.0986472 6 8 6 z M 8 7 C 8.5582071 7 9 7.4417929 9 8 C 9 8.5582071 8.5582071 9 8 9 C 7.4417929 9 7 8.5582071 7 8 C 7 7.4417929 7.4417929 7 8 7 z"/></svg>