<svg xmlns="http://www.w3.org/2000/svg" viewBox="0 0 96 96">
  <title>storm, cloud, thunder</title>
  <g>
    <path d="M72,20a15.4492,15.4492,0,0,0-5.9414,1.1875,21.8844,21.8844,0,0,0-41.2422,3.1133A13.5377,13.5377,0,0,0,22,24a14,14,0,0,0,0,28H72a16,16,0,0,0,0-32Zm0,28H22a10,10,0,1,1,3.5977-19.3008,1.9812,1.9812,0,0,0,1.7187-.1308,2.01,2.01,0,0,0,.98-1.418,17.8944,17.8944,0,0,1,34.7656-2.584,2.0008,2.0008,0,0,0,2.9141,1.1191A11.82,11.82,0,0,1,72,24a12,12,0,0,1,0,24Z" fill="#646464"/>
    <path d="M32,60H22a2.0055,2.0055,0,0,0-1.6016.8008l-6,8a2.0038,2.0038,0,0,0,.1875,2.6133l3.125,3.1269L14.1016,85.3672a2,2,0,0,0,3.1992,2.15l14-12a1.9948,1.9948,0,0,0,.1133-2.9317l-2.7735-2.7734,4.961-6.6133A2.0005,2.0005,0,0,0,32,60ZM24.5859,71.4141l2.4727,2.4726L20.18,79.7832l1.7187-5.15a2.0044,2.0044,0,0,0-.4843-2.0469l-2.7735-2.7734L23,64h5l-3.6016,4.8008A2.0038,2.0038,0,0,0,24.5859,71.4141Z" fill="#646464"/>
    <path d="M56,60H46a2.0055,2.0055,0,0,0-1.6016.8008l-6,8a2.0038,2.0038,0,0,0,.1875,2.6133l3.125,3.1269L38.1016,85.3672a2,2,0,0,0,3.1992,2.15l14-12a1.9948,1.9948,0,0,0,.1133-2.9317l-2.7735-2.7734,4.961-6.6133A2.0005,2.0005,0,0,0,56,60ZM48.5859,71.4141l2.4727,2.4726L44.18,79.7832l1.7187-5.15a2.0044,2.0044,0,0,0-.4843-2.0469l-2.7735-2.7734L47,64h5l-3.6016,4.8008A2.0038,2.0038,0,0,0,48.5859,71.4141Z" fill="#646464"/>
    <path d="M80,60H70a2.0055,2.0055,0,0,0-1.6016.8008l-6,8a2.0038,2.0038,0,0,0,.1875,2.6133l3.125,3.1269L62.1016,85.3672a2,2,0,0,0,3.1992,2.15l14-12a1.9948,1.9948,0,0,0,.1133-2.9317l-2.7735-2.7734,4.961-6.6133A2.0005,2.0005,0,0,0,80,60ZM72.5859,71.4141l2.4727,2.4726L68.18,79.7832l1.7187-5.15a2.0044,2.0044,0,0,0-.4843-2.0469l-2.7735-2.7734L71,64h5l-3.6016,4.8008A2.0038,2.0038,0,0,0,72.5859,71.4141Z" fill="#646464"/>
  </g>
</svg>
